<mxfile host="Electron" agent="Mozilla/5.0 (Macintosh; Intel Mac OS X 10_15_7) AppleWebKit/537.36 (KHTML, like Gecko) draw.io/27.0.5 Chrome/134.0.6998.205 Electron/35.3.0 Safari/537.36" version="27.0.5">
  <diagram id="C5RBs43oDa-KdzZeNtuy" name="Page-1">
    <mxGraphModel dx="907" dy="679" grid="1" gridSize="10" guides="1" tooltips="1" connect="1" arrows="1" fold="1" page="1" pageScale="1" pageWidth="827" pageHeight="1169" math="0" shadow="0">
      <root>
        <mxCell id="WIyWlLk6GJQsqaUBKTNV-0" />
        <mxCell id="WIyWlLk6GJQsqaUBKTNV-1" parent="WIyWlLk6GJQsqaUBKTNV-0" />
        <mxCell id="xzr1AYg_U-AbGogxpXCZ-298" style="edgeStyle=orthogonalEdgeStyle;rounded=0;orthogonalLoop=1;jettySize=auto;html=1;entryX=0;entryY=0.5;entryDx=0;entryDy=0;curved=1;" edge="1" parent="WIyWlLk6GJQsqaUBKTNV-1" source="xzr1AYg_U-AbGogxpXCZ-229" target="xzr1AYg_U-AbGogxpXCZ-265">
          <mxGeometry relative="1" as="geometry">
            <mxPoint x="480" y="330.0000000000001" as="targetPoint" />
          </mxGeometry>
        </mxCell>
        <mxCell id="xzr1AYg_U-AbGogxpXCZ-229" value="Q - 2" style="rounded=1;whiteSpace=wrap;html=1;fontSize=12;glass=0;strokeWidth=1;shadow=0;strokeColor=#666666;align=left;verticalAlign=middle;fontFamily=Helvetica;fontColor=#333333;fillColor=#f5f5f5;" vertex="1" parent="WIyWlLk6GJQsqaUBKTNV-1">
          <mxGeometry x="310" y="160" width="120" height="20" as="geometry" />
        </mxCell>
        <mxCell id="xzr1AYg_U-AbGogxpXCZ-230" value="&lt;div&gt;Section original&lt;/div&gt;" style="rounded=1;whiteSpace=wrap;html=1;glass=0;strokeWidth=1;shadow=0;fillColor=#d5e8d4;strokeColor=#82b366;" vertex="1" parent="WIyWlLk6GJQsqaUBKTNV-1">
          <mxGeometry x="280" y="10" width="120" height="20" as="geometry" />
        </mxCell>
        <mxCell id="xzr1AYg_U-AbGogxpXCZ-233" value="&lt;div&gt;Lesson 9/40&lt;/div&gt;" style="rounded=1;whiteSpace=wrap;html=1;glass=0;strokeWidth=1;shadow=0;" vertex="1" parent="WIyWlLk6GJQsqaUBKTNV-1">
          <mxGeometry x="300" y="30" width="120" height="20" as="geometry" />
        </mxCell>
        <mxCell id="xzr1AYg_U-AbGogxpXCZ-300" style="edgeStyle=orthogonalEdgeStyle;rounded=0;orthogonalLoop=1;jettySize=auto;html=1;curved=1;entryX=0;entryY=0.5;entryDx=0;entryDy=0;" edge="1" parent="WIyWlLk6GJQsqaUBKTNV-1" source="xzr1AYg_U-AbGogxpXCZ-234" target="xzr1AYg_U-AbGogxpXCZ-268">
          <mxGeometry relative="1" as="geometry">
            <mxPoint x="480" y="380.0000000000001" as="targetPoint" />
          </mxGeometry>
        </mxCell>
        <mxCell id="xzr1AYg_U-AbGogxpXCZ-234" value="Q - 0" style="rounded=1;whiteSpace=wrap;html=1;fontSize=12;glass=0;strokeWidth=1;shadow=0;strokeColor=#666666;align=left;verticalAlign=middle;fontFamily=Helvetica;fontColor=#333333;fillColor=#f5f5f5;" vertex="1" parent="WIyWlLk6GJQsqaUBKTNV-1">
          <mxGeometry x="310" y="180" width="120" height="20" as="geometry" />
        </mxCell>
        <mxCell id="xzr1AYg_U-AbGogxpXCZ-290" style="edgeStyle=orthogonalEdgeStyle;rounded=0;orthogonalLoop=1;jettySize=auto;html=1;entryX=0;entryY=0.5;entryDx=0;entryDy=0;curved=1;" edge="1" parent="WIyWlLk6GJQsqaUBKTNV-1" source="xzr1AYg_U-AbGogxpXCZ-235" target="xzr1AYg_U-AbGogxpXCZ-269">
          <mxGeometry relative="1" as="geometry">
            <mxPoint x="500" y="110" as="targetPoint" />
          </mxGeometry>
        </mxCell>
        <mxCell id="xzr1AYg_U-AbGogxpXCZ-235" value="Q - 4" style="rounded=1;whiteSpace=wrap;html=1;fontSize=12;glass=0;strokeWidth=1;shadow=0;strokeColor=#666666;align=left;verticalAlign=middle;fontFamily=Helvetica;fontColor=#333333;fillColor=#f5f5f5;" vertex="1" parent="WIyWlLk6GJQsqaUBKTNV-1">
          <mxGeometry x="310" y="200" width="120" height="20" as="geometry" />
        </mxCell>
        <mxCell id="xzr1AYg_U-AbGogxpXCZ-292" style="edgeStyle=orthogonalEdgeStyle;rounded=0;orthogonalLoop=1;jettySize=auto;html=1;entryX=0;entryY=0.5;entryDx=0;entryDy=0;curved=1;" edge="1" parent="WIyWlLk6GJQsqaUBKTNV-1" source="xzr1AYg_U-AbGogxpXCZ-236" target="xzr1AYg_U-AbGogxpXCZ-270">
          <mxGeometry relative="1" as="geometry">
            <mxPoint x="470" y="170" as="targetPoint" />
          </mxGeometry>
        </mxCell>
        <mxCell id="xzr1AYg_U-AbGogxpXCZ-236" value="Q - 3" style="rounded=1;whiteSpace=wrap;html=1;fontSize=12;glass=0;strokeWidth=1;shadow=0;strokeColor=#666666;align=left;verticalAlign=middle;fontFamily=Helvetica;fontColor=#333333;fillColor=#f5f5f5;" vertex="1" parent="WIyWlLk6GJQsqaUBKTNV-1">
          <mxGeometry x="310" y="220" width="120" height="20" as="geometry" />
        </mxCell>
        <mxCell id="xzr1AYg_U-AbGogxpXCZ-238" value="&lt;div&gt;Lesson 12/40&lt;/div&gt;" style="rounded=1;whiteSpace=wrap;html=1;glass=0;strokeWidth=1;shadow=0;fillColor=#e1d5e7;strokeColor=#9673a6;" vertex="1" parent="WIyWlLk6GJQsqaUBKTNV-1">
          <mxGeometry x="300" y="140" width="120" height="20" as="geometry" />
        </mxCell>
        <mxCell id="xzr1AYg_U-AbGogxpXCZ-243" value="&lt;div&gt;Lesson 9/40&lt;/div&gt;" style="rounded=1;whiteSpace=wrap;html=1;glass=0;strokeWidth=1;shadow=0;fillColor=#e1d5e7;strokeColor=#9673a6;" vertex="1" parent="WIyWlLk6GJQsqaUBKTNV-1">
          <mxGeometry x="300" y="270" width="120" height="20" as="geometry" />
        </mxCell>
        <mxCell id="xzr1AYg_U-AbGogxpXCZ-301" style="edgeStyle=orthogonalEdgeStyle;rounded=0;orthogonalLoop=1;jettySize=auto;html=1;entryX=0;entryY=0.5;entryDx=0;entryDy=0;" edge="1" parent="WIyWlLk6GJQsqaUBKTNV-1" source="xzr1AYg_U-AbGogxpXCZ-247" target="xzr1AYg_U-AbGogxpXCZ-273">
          <mxGeometry relative="1" as="geometry" />
        </mxCell>
        <mxCell id="xzr1AYg_U-AbGogxpXCZ-247" value="Q - ?" style="rounded=1;whiteSpace=wrap;html=1;fontSize=12;glass=0;strokeWidth=1;shadow=0;strokeColor=#666666;align=left;verticalAlign=middle;fontFamily=Helvetica;fontColor=#333333;fillColor=#f5f5f5;" vertex="1" parent="WIyWlLk6GJQsqaUBKTNV-1">
          <mxGeometry x="310" y="380" width="120" height="20" as="geometry" />
        </mxCell>
        <mxCell id="xzr1AYg_U-AbGogxpXCZ-248" value="&lt;div&gt;Lesson? 0/40&lt;/div&gt;" style="rounded=1;whiteSpace=wrap;html=1;glass=0;strokeWidth=1;shadow=0;" vertex="1" parent="WIyWlLk6GJQsqaUBKTNV-1">
          <mxGeometry x="300" y="360" width="120" height="20" as="geometry" />
        </mxCell>
        <mxCell id="xzr1AYg_U-AbGogxpXCZ-252" value="Get total mark for the lesson and put color" style="text;html=1;align=left;verticalAlign=middle;whiteSpace=wrap;rounded=0;fontFamily=Helvetica;fontSize=10;fontColor=default;strokeColor=default;" vertex="1" parent="WIyWlLk6GJQsqaUBKTNV-1">
          <mxGeometry x="10" y="10" width="220" height="20" as="geometry" />
        </mxCell>
        <mxCell id="xzr1AYg_U-AbGogxpXCZ-253" value="Max is &lt;b&gt;X*&lt;/b&gt;Q*10" style="rounded=0;whiteSpace=wrap;html=1;align=left;fontSize=10;" vertex="1" parent="WIyWlLk6GJQsqaUBKTNV-1">
          <mxGeometry x="10" y="30" width="220" height="20" as="geometry" />
        </mxCell>
        <mxCell id="xzr1AYg_U-AbGogxpXCZ-255" value="Color spectre 0-10" style="rounded=0;whiteSpace=wrap;html=1;align=left;fontSize=10;" vertex="1" parent="WIyWlLk6GJQsqaUBKTNV-1">
          <mxGeometry x="10" y="50" width="220" height="20" as="geometry" />
        </mxCell>
        <mxCell id="xzr1AYg_U-AbGogxpXCZ-256" value="Never met questions are 0" style="rounded=0;whiteSpace=wrap;html=1;align=left;fontSize=10;" vertex="1" parent="WIyWlLk6GJQsqaUBKTNV-1">
          <mxGeometry x="10" y="70" width="220" height="20" as="geometry" />
        </mxCell>
        <mxCell id="xzr1AYg_U-AbGogxpXCZ-297" style="edgeStyle=orthogonalEdgeStyle;rounded=0;orthogonalLoop=1;jettySize=auto;html=1;entryX=0;entryY=0.5;entryDx=0;entryDy=0;curved=1;" edge="1" parent="WIyWlLk6GJQsqaUBKTNV-1" source="xzr1AYg_U-AbGogxpXCZ-257" target="xzr1AYg_U-AbGogxpXCZ-278">
          <mxGeometry relative="1" as="geometry">
            <mxPoint x="480" y="310.0000000000001" as="targetPoint" />
          </mxGeometry>
        </mxCell>
        <mxCell id="xzr1AYg_U-AbGogxpXCZ-257" value="Q - 2" style="rounded=1;whiteSpace=wrap;html=1;fontSize=12;glass=0;strokeWidth=1;shadow=0;strokeColor=#666666;align=left;verticalAlign=middle;fontFamily=Helvetica;fontColor=#333333;fillColor=#f5f5f5;" vertex="1" parent="WIyWlLk6GJQsqaUBKTNV-1">
          <mxGeometry x="310" y="50" width="120" height="20" as="geometry" />
        </mxCell>
        <mxCell id="xzr1AYg_U-AbGogxpXCZ-299" style="edgeStyle=orthogonalEdgeStyle;rounded=0;orthogonalLoop=1;jettySize=auto;html=1;entryX=0;entryY=0.5;entryDx=0;entryDy=0;curved=1;" edge="1" parent="WIyWlLk6GJQsqaUBKTNV-1" source="xzr1AYg_U-AbGogxpXCZ-258" target="xzr1AYg_U-AbGogxpXCZ-279">
          <mxGeometry relative="1" as="geometry">
            <mxPoint x="480" y="340.0000000000001" as="targetPoint" />
          </mxGeometry>
        </mxCell>
        <mxCell id="xzr1AYg_U-AbGogxpXCZ-258" value="Q - 0" style="rounded=1;whiteSpace=wrap;html=1;fontSize=12;glass=0;strokeWidth=1;shadow=0;strokeColor=#666666;align=left;verticalAlign=middle;fontFamily=Helvetica;fontColor=#333333;fillColor=#f5f5f5;" vertex="1" parent="WIyWlLk6GJQsqaUBKTNV-1">
          <mxGeometry x="310" y="70" width="120" height="20" as="geometry" />
        </mxCell>
        <mxCell id="xzr1AYg_U-AbGogxpXCZ-289" style="edgeStyle=orthogonalEdgeStyle;rounded=0;orthogonalLoop=1;jettySize=auto;html=1;entryX=0;entryY=0.5;entryDx=0;entryDy=0;curved=1;" edge="1" parent="WIyWlLk6GJQsqaUBKTNV-1" source="xzr1AYg_U-AbGogxpXCZ-259" target="xzr1AYg_U-AbGogxpXCZ-280">
          <mxGeometry relative="1" as="geometry" />
        </mxCell>
        <mxCell id="xzr1AYg_U-AbGogxpXCZ-259" value="Q - 4" style="rounded=1;whiteSpace=wrap;html=1;fontSize=12;glass=0;strokeWidth=1;shadow=0;strokeColor=#666666;align=left;verticalAlign=middle;fontFamily=Helvetica;fontColor=#333333;fillColor=#f5f5f5;" vertex="1" parent="WIyWlLk6GJQsqaUBKTNV-1">
          <mxGeometry x="310" y="90" width="120" height="20" as="geometry" />
        </mxCell>
        <mxCell id="xzr1AYg_U-AbGogxpXCZ-291" style="edgeStyle=orthogonalEdgeStyle;rounded=0;orthogonalLoop=1;jettySize=auto;html=1;entryX=0;entryY=0.5;entryDx=0;entryDy=0;curved=1;" edge="1" parent="WIyWlLk6GJQsqaUBKTNV-1" source="xzr1AYg_U-AbGogxpXCZ-260" target="xzr1AYg_U-AbGogxpXCZ-281">
          <mxGeometry relative="1" as="geometry" />
        </mxCell>
        <mxCell id="xzr1AYg_U-AbGogxpXCZ-260" value="Q - 3" style="rounded=1;whiteSpace=wrap;html=1;fontSize=12;glass=0;strokeWidth=1;shadow=0;strokeColor=#666666;align=left;verticalAlign=middle;fontFamily=Helvetica;fontColor=#333333;fillColor=#f5f5f5;" vertex="1" parent="WIyWlLk6GJQsqaUBKTNV-1">
          <mxGeometry x="310" y="110" width="120" height="20" as="geometry" />
        </mxCell>
        <mxCell id="xzr1AYg_U-AbGogxpXCZ-293" style="edgeStyle=orthogonalEdgeStyle;rounded=0;orthogonalLoop=1;jettySize=auto;html=1;entryX=0;entryY=0.5;entryDx=0;entryDy=0;curved=1;" edge="1" parent="WIyWlLk6GJQsqaUBKTNV-1" source="xzr1AYg_U-AbGogxpXCZ-261" target="xzr1AYg_U-AbGogxpXCZ-282">
          <mxGeometry relative="1" as="geometry" />
        </mxCell>
        <mxCell id="xzr1AYg_U-AbGogxpXCZ-261" value="Q - 3" style="rounded=1;whiteSpace=wrap;html=1;fontSize=12;glass=0;strokeWidth=1;shadow=0;strokeColor=#666666;align=left;verticalAlign=middle;fontFamily=Helvetica;fontColor=#333333;fillColor=#f5f5f5;" vertex="1" parent="WIyWlLk6GJQsqaUBKTNV-1">
          <mxGeometry x="310" y="240" width="120" height="20" as="geometry" />
        </mxCell>
        <mxCell id="xzr1AYg_U-AbGogxpXCZ-294" style="edgeStyle=orthogonalEdgeStyle;rounded=0;orthogonalLoop=1;jettySize=auto;html=1;entryX=0;entryY=0.5;entryDx=0;entryDy=0;curved=1;" edge="1" parent="WIyWlLk6GJQsqaUBKTNV-1" source="xzr1AYg_U-AbGogxpXCZ-262" target="xzr1AYg_U-AbGogxpXCZ-283">
          <mxGeometry relative="1" as="geometry" />
        </mxCell>
        <mxCell id="xzr1AYg_U-AbGogxpXCZ-262" value="Q - 3" style="rounded=1;whiteSpace=wrap;html=1;fontSize=12;glass=0;strokeWidth=1;shadow=0;strokeColor=#666666;align=left;verticalAlign=middle;fontFamily=Helvetica;fontColor=#333333;fillColor=#f5f5f5;" vertex="1" parent="WIyWlLk6GJQsqaUBKTNV-1">
          <mxGeometry x="310" y="290" width="120" height="20" as="geometry" />
        </mxCell>
        <mxCell id="xzr1AYg_U-AbGogxpXCZ-295" style="edgeStyle=orthogonalEdgeStyle;rounded=0;orthogonalLoop=1;jettySize=auto;html=1;entryX=0;entryY=0.5;entryDx=0;entryDy=0;curved=1;" edge="1" parent="WIyWlLk6GJQsqaUBKTNV-1" source="xzr1AYg_U-AbGogxpXCZ-263" target="xzr1AYg_U-AbGogxpXCZ-284">
          <mxGeometry relative="1" as="geometry" />
        </mxCell>
        <mxCell id="xzr1AYg_U-AbGogxpXCZ-263" value="Q - 3" style="rounded=1;whiteSpace=wrap;html=1;fontSize=12;glass=0;strokeWidth=1;shadow=0;strokeColor=#666666;align=left;verticalAlign=middle;fontFamily=Helvetica;fontColor=#333333;fillColor=#f5f5f5;" vertex="1" parent="WIyWlLk6GJQsqaUBKTNV-1">
          <mxGeometry x="310" y="310" width="120" height="20" as="geometry" />
        </mxCell>
        <mxCell id="xzr1AYg_U-AbGogxpXCZ-296" style="edgeStyle=orthogonalEdgeStyle;rounded=0;orthogonalLoop=1;jettySize=auto;html=1;entryX=0;entryY=0.5;entryDx=0;entryDy=0;curved=1;" edge="1" parent="WIyWlLk6GJQsqaUBKTNV-1" source="xzr1AYg_U-AbGogxpXCZ-264" target="xzr1AYg_U-AbGogxpXCZ-285">
          <mxGeometry relative="1" as="geometry" />
        </mxCell>
        <mxCell id="xzr1AYg_U-AbGogxpXCZ-264" value="Q - 3" style="rounded=1;whiteSpace=wrap;html=1;fontSize=12;glass=0;strokeWidth=1;shadow=0;strokeColor=#666666;align=left;verticalAlign=middle;fontFamily=Helvetica;fontColor=#333333;fillColor=#f5f5f5;" vertex="1" parent="WIyWlLk6GJQsqaUBKTNV-1">
          <mxGeometry x="310" y="330" width="120" height="20" as="geometry" />
        </mxCell>
        <mxCell id="xzr1AYg_U-AbGogxpXCZ-265" value="Q - 2" style="rounded=1;whiteSpace=wrap;html=1;fontSize=12;glass=0;strokeWidth=1;shadow=0;strokeColor=#666666;align=left;verticalAlign=middle;fontFamily=Helvetica;fontColor=#333333;fillColor=#f5f5f5;" vertex="1" parent="WIyWlLk6GJQsqaUBKTNV-1">
          <mxGeometry x="620" y="290" width="120" height="20" as="geometry" />
        </mxCell>
        <mxCell id="xzr1AYg_U-AbGogxpXCZ-266" value="&lt;div&gt;Section override&lt;/div&gt;" style="rounded=1;whiteSpace=wrap;html=1;glass=0;strokeWidth=1;shadow=0;fillColor=#d5e8d4;strokeColor=#82b366;" vertex="1" parent="WIyWlLk6GJQsqaUBKTNV-1">
          <mxGeometry x="600" y="10" width="120" height="20" as="geometry" />
        </mxCell>
        <mxCell id="xzr1AYg_U-AbGogxpXCZ-267" value="&lt;div&gt;Lesson 14/40&lt;/div&gt;" style="rounded=1;whiteSpace=wrap;html=1;glass=0;strokeWidth=1;shadow=0;" vertex="1" parent="WIyWlLk6GJQsqaUBKTNV-1">
          <mxGeometry x="620" y="30" width="120" height="20" as="geometry" />
        </mxCell>
        <mxCell id="xzr1AYg_U-AbGogxpXCZ-268" value="Q - 0" style="rounded=1;whiteSpace=wrap;html=1;fontSize=12;glass=0;strokeWidth=1;shadow=0;strokeColor=#666666;align=left;verticalAlign=middle;fontFamily=Helvetica;fontColor=#333333;fillColor=#f5f5f5;" vertex="1" parent="WIyWlLk6GJQsqaUBKTNV-1">
          <mxGeometry x="620" y="330" width="120" height="20" as="geometry" />
        </mxCell>
        <mxCell id="xzr1AYg_U-AbGogxpXCZ-269" value="Q - 4" style="rounded=1;whiteSpace=wrap;html=1;fontSize=12;glass=0;strokeWidth=1;shadow=0;strokeColor=#666666;align=left;verticalAlign=middle;fontFamily=Helvetica;fontColor=#333333;fillColor=#f5f5f5;" vertex="1" parent="WIyWlLk6GJQsqaUBKTNV-1">
          <mxGeometry x="630" y="70" width="120" height="20" as="geometry" />
        </mxCell>
        <mxCell id="xzr1AYg_U-AbGogxpXCZ-270" value="Q - 3" style="rounded=1;whiteSpace=wrap;html=1;fontSize=12;glass=0;strokeWidth=1;shadow=0;strokeColor=#666666;align=left;verticalAlign=middle;fontFamily=Helvetica;fontColor=#333333;fillColor=#f5f5f5;" vertex="1" parent="WIyWlLk6GJQsqaUBKTNV-1">
          <mxGeometry x="630" y="110" width="120" height="20" as="geometry" />
        </mxCell>
        <mxCell id="xzr1AYg_U-AbGogxpXCZ-271" value="&lt;div&gt;Lesson 15/40&lt;/div&gt;" style="rounded=1;whiteSpace=wrap;html=1;glass=0;strokeWidth=1;shadow=0;" vertex="1" parent="WIyWlLk6GJQsqaUBKTNV-1">
          <mxGeometry x="610" y="140" width="120" height="20" as="geometry" />
        </mxCell>
        <mxCell id="xzr1AYg_U-AbGogxpXCZ-272" value="&lt;div&gt;Lesson 2/40&lt;/div&gt;" style="rounded=1;whiteSpace=wrap;html=1;glass=0;strokeWidth=1;shadow=0;" vertex="1" parent="WIyWlLk6GJQsqaUBKTNV-1">
          <mxGeometry x="610" y="270" width="120" height="20" as="geometry" />
        </mxCell>
        <mxCell id="xzr1AYg_U-AbGogxpXCZ-273" value="Q" style="rounded=1;whiteSpace=wrap;html=1;fontSize=12;glass=0;strokeWidth=1;shadow=0;strokeColor=#666666;align=left;verticalAlign=middle;fontFamily=Helvetica;fontColor=#333333;fillColor=#f5f5f5;" vertex="1" parent="WIyWlLk6GJQsqaUBKTNV-1">
          <mxGeometry x="620" y="380" width="120" height="20" as="geometry" />
        </mxCell>
        <mxCell id="xzr1AYg_U-AbGogxpXCZ-274" value="Lesson? 0/40" style="rounded=1;whiteSpace=wrap;html=1;glass=0;strokeWidth=1;shadow=0;" vertex="1" parent="WIyWlLk6GJQsqaUBKTNV-1">
          <mxGeometry x="610" y="360" width="120" height="20" as="geometry" />
        </mxCell>
        <mxCell id="xzr1AYg_U-AbGogxpXCZ-275" value="Q" style="rounded=1;whiteSpace=wrap;html=1;fontSize=12;glass=0;strokeWidth=1;shadow=0;strokeColor=#666666;align=left;verticalAlign=middle;fontFamily=Helvetica;fontColor=#333333;fillColor=#f5f5f5;" vertex="1" parent="WIyWlLk6GJQsqaUBKTNV-1">
          <mxGeometry x="620" y="400" width="120" height="20" as="geometry" />
        </mxCell>
        <mxCell id="xzr1AYg_U-AbGogxpXCZ-276" value="Q" style="rounded=1;whiteSpace=wrap;html=1;fontSize=12;glass=0;strokeWidth=1;shadow=0;strokeColor=#666666;align=left;verticalAlign=middle;fontFamily=Helvetica;fontColor=#333333;fillColor=#f5f5f5;" vertex="1" parent="WIyWlLk6GJQsqaUBKTNV-1">
          <mxGeometry x="620" y="420" width="120" height="20" as="geometry" />
        </mxCell>
        <mxCell id="xzr1AYg_U-AbGogxpXCZ-277" value="Q" style="rounded=1;whiteSpace=wrap;html=1;fontSize=12;glass=0;strokeWidth=1;shadow=0;strokeColor=#666666;align=left;verticalAlign=middle;fontFamily=Helvetica;fontColor=#333333;fillColor=#f5f5f5;" vertex="1" parent="WIyWlLk6GJQsqaUBKTNV-1">
          <mxGeometry x="620" y="440" width="120" height="20" as="geometry" />
        </mxCell>
        <mxCell id="xzr1AYg_U-AbGogxpXCZ-278" value="Q - 2" style="rounded=1;whiteSpace=wrap;html=1;fontSize=12;glass=0;strokeWidth=1;shadow=0;strokeColor=#666666;align=left;verticalAlign=middle;fontFamily=Helvetica;fontColor=#333333;fillColor=#f5f5f5;" vertex="1" parent="WIyWlLk6GJQsqaUBKTNV-1">
          <mxGeometry x="620" y="240" width="120" height="20" as="geometry" />
        </mxCell>
        <mxCell id="xzr1AYg_U-AbGogxpXCZ-279" value="Q - 0" style="rounded=1;whiteSpace=wrap;html=1;fontSize=12;glass=0;strokeWidth=1;shadow=0;strokeColor=#666666;align=left;verticalAlign=middle;fontFamily=Helvetica;fontColor=#333333;fillColor=#f5f5f5;" vertex="1" parent="WIyWlLk6GJQsqaUBKTNV-1">
          <mxGeometry x="620" y="310" width="120" height="20" as="geometry" />
        </mxCell>
        <mxCell id="xzr1AYg_U-AbGogxpXCZ-280" value="Q - 4" style="rounded=1;whiteSpace=wrap;html=1;fontSize=12;glass=0;strokeWidth=1;shadow=0;strokeColor=#666666;align=left;verticalAlign=middle;fontFamily=Helvetica;fontColor=#333333;fillColor=#f5f5f5;" vertex="1" parent="WIyWlLk6GJQsqaUBKTNV-1">
          <mxGeometry x="630" y="50" width="120" height="20" as="geometry" />
        </mxCell>
        <mxCell id="xzr1AYg_U-AbGogxpXCZ-281" value="Q - 3" style="rounded=1;whiteSpace=wrap;html=1;fontSize=12;glass=0;strokeWidth=1;shadow=0;strokeColor=#666666;align=left;verticalAlign=middle;fontFamily=Helvetica;fontColor=#333333;fillColor=#f5f5f5;" vertex="1" parent="WIyWlLk6GJQsqaUBKTNV-1">
          <mxGeometry x="630" y="90" width="120" height="20" as="geometry" />
        </mxCell>
        <mxCell id="xzr1AYg_U-AbGogxpXCZ-282" value="Q - 3" style="rounded=1;whiteSpace=wrap;html=1;fontSize=12;glass=0;strokeWidth=1;shadow=0;strokeColor=#666666;align=left;verticalAlign=middle;fontFamily=Helvetica;fontColor=#333333;fillColor=#f5f5f5;" vertex="1" parent="WIyWlLk6GJQsqaUBKTNV-1">
          <mxGeometry x="620" y="160" width="120" height="20" as="geometry" />
        </mxCell>
        <mxCell id="xzr1AYg_U-AbGogxpXCZ-283" value="Q - 3" style="rounded=1;whiteSpace=wrap;html=1;fontSize=12;glass=0;strokeWidth=1;shadow=0;strokeColor=#666666;align=left;verticalAlign=middle;fontFamily=Helvetica;fontColor=#333333;fillColor=#f5f5f5;" vertex="1" parent="WIyWlLk6GJQsqaUBKTNV-1">
          <mxGeometry x="620" y="180" width="120" height="20" as="geometry" />
        </mxCell>
        <mxCell id="xzr1AYg_U-AbGogxpXCZ-284" value="Q - 3" style="rounded=1;whiteSpace=wrap;html=1;fontSize=12;glass=0;strokeWidth=1;shadow=0;strokeColor=#666666;align=left;verticalAlign=middle;fontFamily=Helvetica;fontColor=#333333;fillColor=#f5f5f5;" vertex="1" parent="WIyWlLk6GJQsqaUBKTNV-1">
          <mxGeometry x="620" y="200" width="120" height="20" as="geometry" />
        </mxCell>
        <mxCell id="xzr1AYg_U-AbGogxpXCZ-285" value="Q - 3" style="rounded=1;whiteSpace=wrap;html=1;fontSize=12;glass=0;strokeWidth=1;shadow=0;strokeColor=#666666;align=left;verticalAlign=middle;fontFamily=Helvetica;fontColor=#333333;fillColor=#f5f5f5;" vertex="1" parent="WIyWlLk6GJQsqaUBKTNV-1">
          <mxGeometry x="620" y="220" width="120" height="20" as="geometry" />
        </mxCell>
        <mxCell id="xzr1AYg_U-AbGogxpXCZ-302" style="edgeStyle=orthogonalEdgeStyle;rounded=0;orthogonalLoop=1;jettySize=auto;html=1;entryX=0;entryY=0.5;entryDx=0;entryDy=0;" edge="1" parent="WIyWlLk6GJQsqaUBKTNV-1" source="xzr1AYg_U-AbGogxpXCZ-286" target="xzr1AYg_U-AbGogxpXCZ-275">
          <mxGeometry relative="1" as="geometry" />
        </mxCell>
        <mxCell id="xzr1AYg_U-AbGogxpXCZ-286" value="Q - ?" style="rounded=1;whiteSpace=wrap;html=1;fontSize=12;glass=0;strokeWidth=1;shadow=0;strokeColor=#666666;align=left;verticalAlign=middle;fontFamily=Helvetica;fontColor=#333333;fillColor=#f5f5f5;" vertex="1" parent="WIyWlLk6GJQsqaUBKTNV-1">
          <mxGeometry x="310" y="400" width="120" height="20" as="geometry" />
        </mxCell>
        <mxCell id="xzr1AYg_U-AbGogxpXCZ-303" style="edgeStyle=orthogonalEdgeStyle;rounded=0;orthogonalLoop=1;jettySize=auto;html=1;" edge="1" parent="WIyWlLk6GJQsqaUBKTNV-1" source="xzr1AYg_U-AbGogxpXCZ-287" target="xzr1AYg_U-AbGogxpXCZ-276">
          <mxGeometry relative="1" as="geometry" />
        </mxCell>
        <mxCell id="xzr1AYg_U-AbGogxpXCZ-287" value="Q - ?" style="rounded=1;whiteSpace=wrap;html=1;fontSize=12;glass=0;strokeWidth=1;shadow=0;strokeColor=#666666;align=left;verticalAlign=middle;fontFamily=Helvetica;fontColor=#333333;fillColor=#f5f5f5;" vertex="1" parent="WIyWlLk6GJQsqaUBKTNV-1">
          <mxGeometry x="310" y="420" width="120" height="20" as="geometry" />
        </mxCell>
        <mxCell id="xzr1AYg_U-AbGogxpXCZ-304" style="edgeStyle=orthogonalEdgeStyle;rounded=0;orthogonalLoop=1;jettySize=auto;html=1;entryX=0;entryY=0.5;entryDx=0;entryDy=0;" edge="1" parent="WIyWlLk6GJQsqaUBKTNV-1" source="xzr1AYg_U-AbGogxpXCZ-288" target="xzr1AYg_U-AbGogxpXCZ-277">
          <mxGeometry relative="1" as="geometry" />
        </mxCell>
        <mxCell id="xzr1AYg_U-AbGogxpXCZ-288" value="Q - ?" style="rounded=1;whiteSpace=wrap;html=1;fontSize=12;glass=0;strokeWidth=1;shadow=0;strokeColor=#666666;align=left;verticalAlign=middle;fontFamily=Helvetica;fontColor=#333333;fillColor=#f5f5f5;" vertex="1" parent="WIyWlLk6GJQsqaUBKTNV-1">
          <mxGeometry x="310" y="440" width="120" height="20" as="geometry" />
        </mxCell>
        <mxCell id="xzr1AYg_U-AbGogxpXCZ-305" value="Get all records for the Section" style="rounded=0;whiteSpace=wrap;html=1;align=left;fontSize=10;" vertex="1" parent="WIyWlLk6GJQsqaUBKTNV-1">
          <mxGeometry x="10" y="250" width="220" height="20" as="geometry" />
        </mxCell>
        <mxCell id="xzr1AYg_U-AbGogxpXCZ-306" value="Coloring logic" style="rounded=1;whiteSpace=wrap;html=1;glass=0;strokeWidth=1;shadow=0;" vertex="1" parent="WIyWlLk6GJQsqaUBKTNV-1">
          <mxGeometry x="10" y="130" width="120" height="20" as="geometry" />
        </mxCell>
        <mxCell id="xzr1AYg_U-AbGogxpXCZ-307" value="Sort by Mark" style="rounded=0;whiteSpace=wrap;html=1;align=left;fontSize=10;" vertex="1" parent="WIyWlLk6GJQsqaUBKTNV-1">
          <mxGeometry x="10" y="270" width="220" height="20" as="geometry" />
        </mxCell>
        <mxCell id="xzr1AYg_U-AbGogxpXCZ-308" value="Create overrided Section where all lessons have the same amount of Quest, but re ordered." style="rounded=0;whiteSpace=wrap;html=1;align=left;fontSize=10;" vertex="1" parent="WIyWlLk6GJQsqaUBKTNV-1">
          <mxGeometry x="10" y="290" width="220" height="30" as="geometry" />
        </mxCell>
        <mxCell id="xzr1AYg_U-AbGogxpXCZ-309" value="mix words should be taken from override as generated Match words do" style="rounded=0;whiteSpace=wrap;html=1;align=left;fontSize=10;" vertex="1" parent="WIyWlLk6GJQsqaUBKTNV-1">
          <mxGeometry x="10" y="320" width="220" height="30" as="geometry" />
        </mxCell>
        <mxCell id="xzr1AYg_U-AbGogxpXCZ-310" value="if no log for the word that never seen, so it it never sorted." style="rounded=0;whiteSpace=wrap;html=1;align=left;fontSize=10;" vertex="1" parent="WIyWlLk6GJQsqaUBKTNV-1">
          <mxGeometry x="300" y="480" width="220" height="30" as="geometry" />
        </mxCell>
      </root>
    </mxGraphModel>
  </diagram>
</mxfile>
